# xmcd CD database file
#
# Track frame offsets:
#	180
#	24824
#	49662
#	72599
#	94075
#	113707
#	136558
#	159668
#	180635
#	203016
#	227944
#	246881
#
# Disc length: 3569 seconds
#
# Revision: 0
# Processed by: cddbd v1.5.2PL0 Copyright (c) Steve Scherf et al.
# Submitted via: CDex 1.70beta2
#
DISCID=980def0c
DTITLE=Varios - Juntos En Lo Mejor
DYEAR=1900
DGENRE=Salsa
TTITLE0=Que No M Eparen La Rumba
TTITLE1=Melao De Caña
TTITLE2=Ojala
TTITLE3=Quien
TTITLE4=Dame Tu Amor
TTITLE5=El Es Casado
TTITLE6=Perdoname
TTITLE7=Resignación
TTITLE8=Un Poco Mas
TTITLE9=Sin Ti
TTITLE10=La Parranda
TTITLE11=Con Los Ojos Del Alma
EXTD=
EXTT0=
EXTT1=
EXTT2=
EXTT3=
EXTT4=
EXTT5=
EXTT6=
EXTT7=
EXTT8=
EXTT9=
EXTT10=
EXTT11=
PLAYORDER=
